<?xml version="1.0" encoding="UTF-8"?>
<svg id="_レイヤー_2" data-name="レイヤー 2" xmlns="http://www.w3.org/2000/svg" viewBox="0 0 32.55 32.55">
  <defs>
    <style>
      .cls-1 {
        fill: #fff;
      }

      .cls-2 {
        fill-rule: evenodd;
      }
    </style>
  </defs>
  <g id="_レイヤー_1-2" data-name="レイヤー 1">
    <g id="_コーヒーサーバー" data-name="コーヒーサーバー">
      <path class="cls-1" d="M22.13,11.2c-.2-2.68.39-6.69.93-8.97-2.65-.25-11.54-.09-19.68.23,1.38,1.62,2.98,4.28,2.98,7.94,0,2.96-.81,6.5-1.58,9.93-.71,3.13-1.45,6.37-1.13,7.78.45,2,1.13,2.28,1.27,2.32,0,0,0,0,0,0,0,0,0,0,.04,0h18.11c.43,0,.83-.22,1.09-.6.27-.39.37-.89.28-1.37-.81-4.43-1.97-12.57-2.32-17.26Z"/>
      <path class="cls-2" d="M22.95,31.5H4.9s-1.46.14-2.19-3.12c-.46-2.07.73-6.41,1.67-10.79.12,0,.24,0,.37,0,3.27,0,3.27-.57,6.54-.57s3.27.57,6.54.57c2.89,0,3.49-.44,5.77-.55.57,3.97,1.07,8.31,1.6,11.19.31,1.68-.79,3.26-2.26,3.26Z"/>
      <path d="M26.23,28.02c-.81-4.38-1.95-12.42-2.29-17-.24-3.24.62-7.93,1.11-9.04.16-.36.14-.77-.05-1.11-.29-.52-.79-.65-1.82-.74-.64-.06-1.56-.1-2.71-.12-1.92-.03-5.09-.01-8.37.06C6.52.21.93.45.88.45.47.47.13.8.03,1.25c-.1.45.07.93.42,1.17.04.03,4.07,2.88,4.07,7.99,0,2.69-.81,6.25-1.53,9.4-.84,3.71-1.57,6.91-1.13,8.85.82,3.65,2.58,3.9,3.06,3.9.01,0,.03,0,.04,0h18.11c.98,0,1.9-.51,2.51-1.39.62-.88.85-2.03.65-3.14ZM24.16,29.84c-.27.38-.67.61-1.09.61H4.94s-.04,0-.04,0c0,0,0,0,0,0-.14-.04-.82-.32-1.27-2.32-.32-1.41.42-4.64,1.13-7.78.78-3.43,1.59-6.97,1.59-9.93,0-3.67-1.6-6.33-2.98-7.94,8.15-.32,17.05-.48,19.7-.23-.54,2.28-1.13,6.3-.93,8.97.34,4.69,1.5,12.83,2.32,17.26.09.49-.01.99-.28,1.37Z"/>
      <g>
        <rect x="4.95" y="8.29" width="17.45" height="5.73"/>
        <path class="cls-2" d="M21.09,13.52v-4.33h9.26c.58,0,1.14.33,1.55.92.41.59.64,1.38.64,2.21v11.74c0,1.11-.77,2.02-1.73,2.02h0c-.96,0-1.73-.9-1.73-2.02v-7.4c0-.83-.23-1.62-.64-2.21-.41-.59-.97-.92-1.55-.92h-5.8Z"/>
      </g>
    </g>
  </g>
</svg>