<?xml version="1.0" encoding="UTF-8"?>
<svg id="_レイヤー_2" data-name="レイヤー 2" xmlns="http://www.w3.org/2000/svg" viewBox="0 0 30 30">
  <defs>
    <style>
      .cls-1 {
        fill: #fff;
      }
    </style>
  </defs>
  <g id="_レイヤー_1-2" data-name="レイヤー 1">
    <g id="_紙コップ" data-name="紙コップ">
      <g>
        <g>
          <polygon class="cls-1" points="3.85 5.66 5.71 28.28 24.29 28.28 26.15 5.66 3.85 5.66"/>
          <path d="M28.16,4.24c-.25-.2-.59-.31-.95-.31H2.79c-.36,0-.71.11-.95.31-.25.2-.37.46-.35.73l1.98,24.11c.04.51.62.92,1.31.92h20.46c.69,0,1.27-.4,1.31-.92l1.97-24.11c.02-.27-.11-.53-.35-.73ZM5.71,28.28L3.85,5.66h22.29l-1.85,22.62H5.71Z"/>
        </g>
        <g>
          <rect class="cls-1" x="2.31" y="1.72" width="25.38" height="3.2"/>
          <path d="M28.69,0H1.31C.59,0,0,.44,0,.97v4.69c0,.54.59.97,1.31.97h27.38c.72,0,1.31-.44,1.31-.97V.97c0-.54-.59-.97-1.31-.97ZM27.69,4.92H2.31V1.72h25.38v3.2Z"/>
        </g>
      </g>
      <g>
        <ellipse class="cls-1" cx="15.16" cy="17.21" rx="3.79" ry="2.83"/>
        <path d="M15.16,13.16c-3,0-5.44,1.82-5.44,4.06s2.44,4.06,5.44,4.06,5.44-1.82,5.44-4.06-2.44-4.06-5.44-4.06ZM15.16,20.04c-2.09,0-3.79-1.27-3.79-2.83s1.7-2.83,3.79-2.83,3.79,1.27,3.79,2.83-1.7,2.83-3.79,2.83Z"/>
      </g>
    </g>
  </g>
</svg>