<?xml version="1.0" encoding="UTF-8"?>
<svg id="_レイヤー_2" data-name="レイヤー 2" xmlns="http://www.w3.org/2000/svg" viewBox="0 0 43.14 24">
  <defs>
    <style>
      .cls-1 {
        fill: #fff;
      }
    </style>
  </defs>
  <g id="_レイヤー_1-2" data-name="レイヤー 1">
    <g id="_コーヒー豆" data-name="コーヒー豆">
      <g id="_右" data-name="右">
        <path class="cls-1" d="M40.72,15.68c-.31-1.25-1.09-2.31-2.19-2.97l-5.05-3.05c-.75-.45-1.58-.68-2.43-.68-.39,0-.79.05-1.18.15-1.23.32-2.27,1.1-2.93,2.21-.65,1.11-.84,2.42-.53,3.67.31,1.25,1.09,2.31,2.19,2.97l5.05,3.05c1.09.66,2.37.85,3.61.53,1.23-.32,2.27-1.1,2.92-2.21,0,0,0,0,0,0,.65-1.11.84-2.42.53-3.67Z"/>
        <path d="M39.56,20.41c-.17,0-.34-.04-.5-.14-1.17-.7-1.66-1.28-2.1-1.79-.39-.46-.73-.85-1.63-1.39-.9-.54-1.4-.66-1.98-.79-.65-.15-1.39-.31-2.56-1.02-1.17-.7-1.66-1.28-2.1-1.79-.39-.46-.73-.85-1.63-1.39-.46-.28-.61-.88-.34-1.34.28-.46.87-.62,1.33-.34,1.17.7,1.66,1.28,2.1,1.79.39.46.73.85,1.63,1.39.9.54,1.4.65,1.98.79.65.15,1.39.31,2.56,1.02,1.17.7,1.66,1.28,2.1,1.79.39.46.73.85,1.63,1.39.46.28.61.88.34,1.34-.18.31-.5.48-.84.48Z"/>
        <path d="M42.92,15.12c-.46-1.84-1.61-3.4-3.22-4.37l-5.05-3.05c-1.62-.98-3.51-1.25-5.34-.79-1.82.47-3.36,1.63-4.32,3.26-.96,1.63-1.24,3.55-.77,5.39.46,1.84,1.6,3.4,3.22,4.37l5.05,3.05c1.1.67,2.34,1.01,3.59,1.01.58,0,1.17-.07,1.74-.22,1.82-.47,3.36-1.63,4.32-3.26,0,0,0,0,0,0,.96-1.63,1.23-3.55.77-5.39ZM40.19,19.36c-.65,1.11-1.69,1.89-2.92,2.21-1.23.32-2.51.13-3.61-.53l-5.05-3.05c-1.1-.66-1.87-1.72-2.19-2.97-.31-1.26-.13-2.56.53-3.67.65-1.11,1.69-1.9,2.93-2.21.39-.1.79-.15,1.18-.15.85,0,1.68.23,2.43.68l5.05,3.05c1.1.66,1.87,1.72,2.19,2.97.31,1.26.13,2.56-.53,3.67,0,0,0,0,0,0Z"/>
      </g>
      <g id="_左" data-name="左">
        <path class="cls-1" d="M13.02,2.29h-5.93c-1.29,0-2.49.51-3.4,1.43-.91.93-1.41,2.16-1.41,3.47s.5,2.54,1.41,3.47c.91.92,2.12,1.43,3.4,1.43h5.93c1.29,0,2.49-.51,3.4-1.43.91-.93,1.41-2.16,1.41-3.47h0c0-1.31-.5-2.54-1.41-3.47-.91-.92-2.12-1.43-3.4-1.43Z"/>
        <path d="M17.35,8.49c-1.34,0-2.06-.19-2.68-.36-.59-.16-1.09-.29-2.18-.29s-1.6.14-2.18.29c-.63.17-1.34.36-2.68.36s-2.06-.19-2.68-.36c-.59-.16-1.09-.29-2.18-.29-.54,0-.97-.44-.97-.98s.44-.98.97-.98c1.34,0,2.05.19,2.68.36.59.16,1.09.29,2.18.29s1.6-.14,2.18-.29c.63-.17,1.34-.36,2.68-.36s2.06.19,2.68.36c.59.16,1.09.29,2.18.29.54,0,.97.44.97.98s-.44.98-.97.98Z"/>
        <path d="M18.03,2.11c-1.34-1.36-3.12-2.11-5.01-2.11h-5.93c-1.89,0-3.68.75-5.02,2.11C.74,3.46,0,5.27,0,7.18s.74,3.72,2.07,5.08c1.34,1.36,3.12,2.11,5.02,2.11h5.93c1.89,0,3.68-.75,5.01-2.11,1.34-1.36,2.07-3.16,2.07-5.08h0c0-1.92-.74-3.72-2.07-5.08ZM17.84,7.18c0,1.31-.5,2.54-1.41,3.47-.91.92-2.12,1.43-3.4,1.43h-5.93c-1.29,0-2.49-.51-3.4-1.43-.91-.93-1.41-2.16-1.41-3.47s.5-2.54,1.41-3.47c.91-.92,2.12-1.43,3.4-1.43h5.93c1.29,0,2.49.51,3.4,1.43.91.93,1.41,2.16,1.41,3.47h0Z"/>
      </g>
    </g>
  </g>
</svg>