<?xml version="1.0" encoding="UTF-8"?>
<svg id="_レイヤー_2" data-name="レイヤー 2" xmlns="http://www.w3.org/2000/svg" xmlns:xlink="http://www.w3.org/1999/xlink" viewBox="0 0 92.37 92.37">
  <defs>
    <style>
      .cls-1 {
        fill: url(#_名称未設定グラデーション_58);
      }

      .cls-2 {
        fill: #252525;
        font-family: CenturySchoolbook-Bold, 'Century Schoolbook';
        font-size: 16.18px;
        font-weight: 700;
      }

      .cls-3 {
        fill: #c2965c;
        stroke: #252525;
        stroke-width: .46px;
      }

      .cls-3, .cls-4 {
        stroke-miterlimit: 10;
      }

      .cls-4 {
        fill: #40220f;
        stroke: #6a3906;
        stroke-width: .08px;
      }

      .cls-5 {
        fill: url(#_名称未設定グラデーション_58-2);
      }
    </style>
    <linearGradient id="_名称未設定グラデーション_58" data-name="名称未設定グラデーション 58" x1="47.95" y1="64.06" x2="64.26" y2="64.06" gradientUnits="userSpaceOnUse">
      <stop offset=".08" stop-color="#cada2e"/>
      <stop offset=".15" stop-color="#bdd52e"/>
      <stop offset=".46" stop-color="#8cc231"/>
      <stop offset=".62" stop-color="#7abb33"/>
      <stop offset=".92" stop-color="#126b36"/>
    </linearGradient>
    <linearGradient id="_名称未設定グラデーション_58-2" data-name="名称未設定グラデーション 58" x1="-249.46" y1="409" x2="-236.47" y2="409" gradientTransform="translate(-251.31 -310.27) rotate(-69.14)" xlink:href="#_名称未設定グラデーション_58"/>
  </defs>
  <g id="_レイヤー_1-2" data-name="レイヤー 1">
    <rect class="cls-3" x="13.76" y="13.76" width="64.86" height="64.86" transform="translate(46.18 -19.13) rotate(45)"/>
    <g>
      <path class="cls-1" d="M64.2,55.3s-8.08-.89-12.55,3.94c-3.45,3.73-3.75,9.79-3.7,12.36l10.13-10.59c-2,2.69-4.3,5.54-6.95,8.43-1.05,1.14-2.09,2.23-3.13,3.26,0,.07,0,.11,0,.11,0,0,8.08.89,12.55-3.94s3.65-13.57,3.65-13.57Z"/>
      <path class="cls-5" d="M40.96,54.18s-2.65,5.71-.77,10.25c1.45,3.51,5.19,5.29,6.81,5.93l-4.03-10.2c1.18,2.17,2.37,4.6,3.5,7.3.45,1.07.86,2.12,1.24,3.15.05.01.07.02.07.02,0,0,2.65-5.71.77-10.25s-7.59-6.2-7.59-6.2Z"/>
      <path class="cls-4" d="M40.23,77.45c1.06-.7,1.86-1.77,2.57-2.85.84-1.27,1.51-2.8,2.66-3.76,1.27-1.06,2.86-1.34,4.26-2.13.82-.46,1.52-1.1,2.23-1.74-.24-.53-.56-.99-.97-1.37-2.47-2.29-7.23-.66-10.62,3.63-2.35,2.97-3.42,6.44-3.04,9.05,1.01,0,2.01-.23,2.9-.83Z"/>
      <path class="cls-4" d="M49.53,69.05c-1.5.65-3.2,1.1-4.19,2.6-.83,1.27-1.55,2.61-2.48,3.8-.81,1.04-1.77,1.94-2.95,2.46-.72.31-1.46.45-2.22.47.24.69.61,1.29,1.12,1.76,2.47,2.29,7.23.66,10.62-3.63,2.48-3.14,3.54-6.82,2.97-9.48-.89.77-1.77,1.54-2.86,2.01Z"/>
    </g>
    <text class="cls-2" transform="translate(15.31 49.08)"><tspan x="0" y="0">Lipsum</tspan></text>
  </g>
</svg>